<?xml version="1.0" standalone="no"?>
<!DOCTYPE svg PUBLIC "-//W3C//DTD SVG 20010904//EN"
 "http://www.w3.org/TR/2001/REC-SVG-20010904/DTD/svg10.dtd">
<svg version="1.0" xmlns="http://www.w3.org/2000/svg"
 width="500.000000pt" height="500.000000pt" viewBox="0 0 500.000000 500.000000"
 preserveAspectRatio="xMidYMid meet">

<g transform="translate(0.000000,500.000000) scale(0.100000,-0.100000)"
fill="#000000" stroke="none">
<path d="M3737 4919 c-30 -18 -47 -66 -58 -171 l-11 -103 -170 -336 -171 -335
-56 19 c-42 14 -83 19 -166 19 -99 -1 -210 -14 -223 -27 -7 -7 30 -165 40
-171 4 -3 37 4 74 16 70 21 185 27 228 11 23 -9 24 -12 15 -48 -6 -21 -30 -64
-55 -95 -24 -32 -88 -152 -145 -270 -55 -117 -102 -215 -104 -217 -2 -2 -17 6
-34 18 -32 23 -165 61 -212 61 -37 0 -30 20 15 44 74 40 144 147 167 254 30
147 -51 312 -190 379 -48 24 -68 28 -146 28 -82 0 -97 -3 -157 -33 -74 -36
-127 -90 -173 -173 -24 -45 -30 -69 -33 -140 -6 -118 16 -167 110 -251 39 -34
73 -71 78 -82 6 -18 -1 -22 -83 -43 -99 -25 -172 -62 -182 -93 -14 -46 57
-119 137 -140 l38 -11 0 -74 c0 -88 6 -83 -139 -120 -153 -38 -207 -79 -236
-178 -17 -58 -20 -123 -5 -132 6 -4 10 16 10 52 1 115 60 191 175 224 38 11
98 29 133 39 49 14 62 15 62 5 0 -15 47 -55 64 -55 6 1 -1 11 -16 23 -27 22
-28 27 -28 115 0 85 2 92 20 92 17 0 18 -5 14 -47 -4 -35 3 -82 25 -167 44
-171 103 -286 147 -286 27 0 72 58 119 153 37 73 54 95 83 112 26 15 38 29 42
50 4 21 8 26 14 17 5 -9 -20 -73 -74 -186 l-82 -173 -132 -6 c-193 -8 -416
-70 -458 -127 -18 -25 -18 -33 -3 -220 8 -107 17 -231 20 -275 3 -44 15 -172
26 -284 16 -163 18 -210 8 -233 -6 -16 -13 -27 -15 -25 -3 2 -86 705 -109 925
-4 34 -11 62 -16 62 -11 0 -17 59 45 -477 30 -258 56 -486 59 -508 3 -33 -6
-61 -51 -155 -184 -389 -222 -508 -222 -697 0 -76 3 -93 15 -93 24 0 209 189
255 260 23 36 78 137 122 225 44 88 81 161 82 162 1 1 42 -5 91 -14 96 -17
348 -13 382 5 10 6 -40 8 -138 4 -139 -4 -244 4 -312 24 -35 11 -6 22 35 12
23 -5 51 -7 62 -6 12 2 -5 7 -36 12 -32 4 -58 12 -58 17 0 5 25 7 58 4 l57 -4
-48 9 c-56 10 -59 12 -52 32 5 12 15 13 58 6 78 -14 291 -13 382 2 90 14 128
30 149 63 18 28 64 302 116 702 22 171 45 338 50 372 15 91 -1 124 -72 151
-35 13 -52 25 -50 35 1 8 32 76 68 152 65 136 65 137 86 118 37 -33 50 -72 50
-149 0 -41 -3 -82 -6 -91 -3 -10 -28 -182 -56 -383 -107 -782 -129 -924 -148
-938 -25 -19 -138 -52 -186 -54 l-41 -1 50 -6 50 -7 -60 -7 c-97 -13 -102 -14
-57 -16 51 -1 196 31 167 37 -14 3 -6 9 30 23 27 10 50 17 52 15 10 -10 -44
-56 -88 -75 -61 -27 -58 -41 4 -17 52 20 91 58 106 106 10 32 59 365 161 1095
22 160 40 313 40 340 0 57 -28 125 -60 148 -22 15 -21 15 160 398 117 247 185
404 191 439 12 63 53 140 75 140 8 0 34 -18 59 -41 47 -43 88 -118 99 -181 4
-21 12 -38 19 -37 30 1 162 58 165 70 3 19 -62 127 -118 197 -44 54 -134 135
-161 144 -11 4 -6 20 17 69 17 35 35 75 39 88 7 22 11 18 42 -48 47 -99 98
-147 216 -205 94 -46 100 -51 169 -139 39 -51 86 -115 105 -144 l35 -51 -23
-31 c-13 -18 -28 -29 -34 -27 -5 3 -45 20 -87 37 -124 52 -125 18 -7 -115 l44
-50 0 -90 c0 -81 3 -98 31 -156 17 -36 54 -96 82 -133 29 -37 52 -72 52 -76 0
-19 46 -120 77 -169 37 -59 41 -86 16 -97 -10 -4 -58 -10 -108 -12 -69 -4
-115 0 -200 17 -221 45 -470 8 -606 -89 -98 -70 -134 -148 -127 -270 6 -87 46
-196 102 -272 44 -59 133 -128 239 -184 80 -42 229 -95 268 -95 24 0 24 -13
-1 -86 -12 -32 -26 -103 -32 -156 l-11 -97 -56 -12 c-31 -6 -77 -19 -102 -29
l-47 -17 9 31 c15 53 11 86 -10 86 -25 0 -123 -114 -158 -183 -14 -29 -39 -67
-55 -86 -16 -18 -37 -49 -46 -67 -14 -30 -25 -37 -91 -58 -113 -36 -108 -62 7
-33 l52 14 -8 -26 c-12 -44 -5 -203 12 -268 28 -106 68 -183 96 -183 4 0 7 71
6 158 l-1 157 32 68 c54 113 110 167 225 214 64 26 115 34 333 53 245 21 336
75 420 246 24 50 27 64 23 130 -4 51 -13 88 -31 125 l-26 53 25 29 c14 17 36
52 50 79 21 41 23 52 12 65 -19 23 -89 11 -167 -30 -100 -53 -106 -42 -43 91
28 60 63 145 79 190 15 45 33 82 38 82 26 0 124 55 172 97 57 48 100 113 133
202 18 47 19 56 7 68 -12 12 -19 12 -52 -1 -21 -9 -39 -16 -40 -16 -1 0 -5 27
-8 60 -6 70 -46 162 -102 234 -30 40 -35 53 -26 65 43 61 81 176 81 248 0 66
-22 135 -54 170 -58 63 -81 27 -91 -140 -4 -59 -10 -120 -14 -135 l-7 -27 -7
32 c-3 18 -27 85 -53 149 -43 107 -46 119 -35 153 21 72 93 105 153 70 79 -46
175 -70 292 -73 37 -1 39 1 51 41 l13 42 -72 49 c-145 100 -183 117 -261 116
-41 -1 -94 -10 -128 -22 l-59 -20 6 22 c15 50 18 167 6 229 -16 88 -78 212
-105 212 -35 0 -47 -77 -40 -255 3 -85 8 -175 11 -200 l6 -45 -57 80 c-32 44
-88 116 -124 160 -37 44 -84 112 -105 150 -21 39 -53 85 -70 103 -39 42 -113
81 -170 88 -51 7 -52 -3 12 134 21 47 65 144 97 215 52 115 67 139 130 205 79
82 109 131 100 160 -12 39 -101 106 -163 124 -67 18 -90 20 -115 5z m89 -30
c25 -6 44 -15 42 -19 -2 -4 -25 -54 -51 -112 l-49 -105 -31 7 c-32 6 -32 6
-29 66 5 113 27 172 65 174 5 0 28 -5 53 -11z m111 -71 c13 -12 23 -29 23 -38
0 -20 -46 -92 -91 -143 l-34 -39 -22 24 -23 24 47 97 c28 59 53 97 62 97 8 0
25 -10 38 -22z m-171 -203 c25 -13 26 -15 8 -15 -36 0 -84 12 -84 21 0 14 45
10 76 -6z m17 -52 c49 -9 24 -28 -34 -26 -77 3 -99 10 -92 29 5 15 37 14 126
-3z m-55 -59 c36 -5 52 -11 52 -22 0 -12 -11 -13 -67 -7 -77 8 -95 14 -87 26
6 11 30 11 102 3z m-30 -60 c37 -5 52 -11 52 -22 0 -12 -11 -14 -65 -8 -75 8
-97 14 -89 27 6 11 30 11 102 3z m-2 -64 c37 0 45 -14 17 -28 -17 -9 -140 2
-151 12 -2 3 -1 10 3 17 5 7 23 9 53 5 25 -3 60 -6 78 -6z m-49 -65 c41 -5 51
-10 46 -22 -5 -13 -19 -15 -76 -10 -39 3 -74 10 -80 16 -16 16 3 32 31 27 15
-3 50 -8 79 -11z m-3 -71 c23 -5 26 -8 15 -19 -11 -10 -29 -11 -77 -4 -69 10
-82 15 -82 31 0 10 71 6 144 -8z m-42 -60 c28 -4 35 -9 31 -21 -5 -12 -17 -14
-62 -9 -80 10 -101 16 -101 33 0 16 8 15 132 -3z m-52 -61 c73 -7 76 -28 4
-27 -79 1 -124 12 -117 30 4 11 13 14 29 10 13 -4 51 -9 84 -13z m-45 -59 c60
-9 75 -14 75 -26 0 -11 -91 -6 -145 8 -36 9 -33 37 3 30 15 -3 45 -8 67 -12z
m-29 -60 c61 -8 83 -19 68 -34 -7 -7 -28 -7 -70 0 -100 18 -104 19 -97 36 4
10 13 14 27 10 11 -3 44 -8 72 -12z m-822 -45 c150 -56 239 -241 193 -400 -9
-30 -34 -82 -56 -116 -45 -70 -97 -105 -181 -125 -50 -11 -52 -13 -22 -16 29
-3 32 -6 32 -37 0 -26 -3 -33 -15 -29 -12 5 -15 -1 -14 -27 1 -19 5 -47 10
-64 6 -23 7 -19 3 18 -3 31 -1 47 6 47 7 0 10 -17 8 -47 l-3 -48 -99 -3 -99
-3 6 43 c4 27 2 37 -4 27 -6 -10 -9 -2 -10 26 -1 38 -2 37 -10 -15 -5 -30 -15
-59 -21 -65 -8 -7 -9 -5 -3 10 14 37 18 151 6 173 -11 21 -10 21 14 10 19 -9
25 -19 26 -47 2 -34 2 -34 6 -6 3 17 9 35 15 42 7 9 2 14 -17 19 -15 4 -62 33
-105 64 -64 48 -83 69 -106 117 -68 138 -15 307 131 419 74 56 210 71 309 33z
m466 0 c117 -14 182 -34 227 -71 46 -37 93 -58 131 -58 38 0 109 -49 189 -128
65 -65 123 -137 123 -153 0 -9 -56 -35 -97 -45 -18 -5 -23 -2 -23 14 0 59 -80
180 -145 218 -36 20 -54 24 -102 22 l-58 -3 -28 41 c-54 82 -207 111 -342 66
l-54 -19 -11 49 c-7 26 -9 55 -6 63 7 18 73 20 196 4z m399 -35 c2 -2 -1 -16
-8 -30 -10 -24 -16 -26 -51 -21 -49 6 -110 43 -110 66 0 16 5 17 83 3 45 -8
84 -16 86 -18z m-210 -140 c11 -14 23 -34 26 -45 6 -17 13 -19 56 -13 l49 7
-24 -44 c-14 -24 -27 -62 -31 -84 -3 -22 -13 -58 -21 -81 l-15 -41 -58 11
c-43 8 -69 21 -101 49 l-44 37 17 33 c10 17 35 55 57 82 22 28 43 65 46 83 8
39 16 40 43 6z m1286 -238 c19 -8 77 -43 130 -78 79 -52 94 -66 89 -83 -10
-30 -10 -30 -78 -12 -75 20 -76 20 -76 7 0 -5 8 -10 18 -11 9 0 42 -9 72 -19
52 -19 53 -19 15 -15 -129 16 -211 37 -255 65 -67 43 -108 38 -202 -24 -26
-17 -27 -17 -43 8 -16 24 -15 27 9 63 14 21 26 43 26 49 0 11 51 34 120 53 53
14 136 13 175 -3z m-1396 -50 c10 -12 -15 -72 -140 -338 -84 -178 -156 -327
-160 -332 -9 -10 -95 18 -92 31 1 5 27 63 58 129 96 201 216 456 241 512 l24
53 29 -20 c15 -11 33 -27 40 -35z m129 -41 c3 -3 -305 -663 -314 -674 -4 -4
-65 18 -76 28 -7 6 -5 11 142 321 51 107 108 228 126 268 l34 72 42 -6 c24 -4
44 -8 46 -9z m866 -50 c3 -8 3 -22 0 -30 -4 -9 3 -18 19 -24 13 -5 27 -17 31
-26 8 -21 -6 -17 -63 20 -41 25 -41 26 -25 50 19 29 29 31 38 10z m120 -69
c-3 -9 -10 -13 -16 -10 -5 3 -4 12 3 20 15 18 22 13 13 -10z m-1674 -73 c-4
-42 -5 -44 -8 -15 -3 30 2 62 10 62 2 0 1 -21 -2 -47z m47 11 c-3 -3 -12 -4
-19 -1 -8 3 -5 6 6 6 11 1 17 -2 13 -5z m107 -20 c71 -18 114 -41 121 -65 3
-9 -4 -37 -16 -63 -18 -36 -32 -49 -68 -65 -77 -32 -129 -42 -199 -38 -37 2
-50 2 -29 0 20 -2 35 -8 32 -14 -4 -5 8 -9 24 -9 29 0 31 -2 31 -37 0 -44 -39
-183 -51 -183 -11 0 -11 3 6 75 8 33 14 71 14 85 0 14 -7 -2 -14 -35 -29 -132
-28 -130 -68 -133 -30 -3 -37 0 -38 15 -1 17 -2 17 -6 1 -3 -14 -15 -18 -56
-18 -37 0 -48 -3 -37 -10 8 -5 32 -10 53 -10 32 0 37 -3 33 -17 -2 -10 -7 -34
-10 -53 -5 -29 -4 -31 3 -10 5 14 12 37 15 53 5 22 12 27 36 27 22 0 30 -5 31
-17 0 -14 2 -13 9 5 5 12 14 22 20 22 22 0 -87 -193 -122 -214 -12 -7 -21 -6
-34 5 -49 40 -138 315 -132 408 l3 46 109 -3 c67 -3 106 0 102 6 -3 5 -38 10
-78 11 -126 3 -265 34 -318 72 -39 27 -55 62 -40 89 12 22 102 70 130 69 8 0
-5 -9 -29 -20 -24 -11 -42 -22 -39 -24 3 -3 29 5 57 19 29 13 47 26 41 28 -6
2 11 3 37 3 26 0 49 -3 51 -7 6 -20 -1 -26 -42 -32 -171 -26 -28 -126 180
-126 102 0 253 26 276 47 45 40 4 83 -79 83 -46 0 -53 3 -53 19 0 19 11 23 69
30 7 0 41 -6 75 -15z m1379 -99 c-4 -16 -8 -76 -8 -132 0 -55 -4 -96 -8 -90
-5 7 -24 43 -43 82 -29 59 -34 80 -34 141 0 39 3 73 6 76 3 4 26 -6 50 -20 41
-25 44 -29 37 -57z m-1803 45 c0 -5 -12 -10 -27 -11 -27 0 -27 -1 -5 -9 12 -5
22 -14 22 -20 0 -5 -10 -10 -22 -9 -21 0 -22 1 -3 8 18 7 17 8 -7 14 -15 4
-35 4 -45 1 -12 -5 -15 -4 -8 4 6 6 26 15 45 20 47 14 50 14 50 2z m372 0 c20
-6 39 -17 42 -25 6 -17 -10 -30 -19 -15 -3 5 -12 10 -18 10 -7 0 -6 -4 3 -11
12 -9 12 -10 -3 -5 -10 3 -34 6 -53 6 -46 0 -48 29 -1 31 l32 2 -35 7 c-28 6
-30 8 -10 9 14 0 41 -4 62 -9z m-92 -52 c7 -22 6 -28 -6 -28 -10 0 -14 12 -13
43 0 23 3 35 6 27 2 -8 8 -27 13 -42z m-340 7 c0 -9 -6 -12 -15 -9 -8 4 -12
10 -9 15 8 14 24 10 24 -6z m89 -39 c-9 -8 -10 -7 -5 7 3 10 7 26 7 35 1 9 4
6 6 -7 3 -13 -1 -28 -8 -35z m1876 33 c11 -11 -9 -12 -54 -3 -17 4 -28 11 -25
16 7 10 64 1 79 -13z m-1574 -6 c-19 -4 -21 -7 -10 -15 12 -8 12 -9 0 -6 -28
8 -24 28 6 27 26 -2 26 -2 4 -6z m1653 -61 c35 -92 32 -100 -9 -22 -35 67 -42
90 -26 90 5 0 21 -30 35 -68z m-2001 51 c-7 -2 -19 -2 -25 0 -7 3 -2 5 12 5
14 0 19 -2 13 -5z m1950 -25 c4 -12 4 -24 2 -26 -2 -2 -31 -6 -64 -9 -60 -6
-61 -5 -61 19 0 34 6 38 66 38 45 0 52 -3 57 -22z m32 -67 c15 -29 14 -30 -18
-40 -17 -5 -55 -13 -84 -16 -50 -6 -52 -6 -59 19 -11 45 0 55 68 59 35 2 66 4
70 5 4 1 14 -11 23 -27z m-1478 2 c-2 -5 -23 -47 -45 -95 -31 -67 -45 -86 -56
-82 -11 4 -16 19 -15 48 3 81 10 97 59 116 52 21 63 23 57 13z m-122 -43 c-3
-5 -7 -49 -9 -97 -4 -81 -6 -89 -27 -100 -31 -16 -34 -4 -14 44 9 21 19 66 22
101 4 44 10 62 20 62 8 0 11 -4 8 -10z m1655 -51 c0 -12 -31 -27 -77 -37 -32
-7 -44 -6 -62 9 -24 20 -41 17 -41 -7 0 -8 -4 -14 -10 -14 -5 0 -10 6 -10 13
0 6 -3 22 -6 35 -6 21 -3 22 47 23 30 0 70 6 89 13 31 12 37 11 53 -7 9 -10
17 -23 17 -28z m24 -60 c5 -24 2 -29 -36 -44 l-41 -16 -30 29 -29 29 44 11
c23 7 50 16 58 21 18 12 25 5 34 -30z m93 -61 c61 -67 113 -194 113 -276 0
-43 -5 -53 -45 -97 -25 -27 -64 -75 -85 -108 -22 -33 -40 -58 -40 -56 6 59 38
210 44 201 10 -16 36 -3 36 19 0 13 -7 19 -22 19 -22 0 -23 4 -26 103 -1 56
-6 126 -11 154 -11 70 -1 81 36 41z m-79 -24 c2 -24 -2 -33 -21 -41 -21 -10
-26 -8 -41 19 -20 33 -20 33 14 47 35 14 45 9 48 -25z m-1567 2 l27 -11 -78
-161 -77 -160 -39 4 c-21 2 -45 5 -51 7 -9 3 6 43 43 122 31 65 67 142 80 171
26 57 27 58 95 28z m104 -30 c19 -8 35 -17 35 -20 0 -6 -137 -296 -143 -302
-7 -7 -87 8 -87 16 0 13 149 320 155 320 3 0 21 -7 40 -14z m1475 -56 c0 -36
-12 -38 -34 -6 -12 18 -12 26 -3 29 28 12 37 6 37 -23z m-3 -62 c-3 -8 -6 -5
-6 6 -1 11 2 17 5 13 3 -3 4 -12 1 -19z m-397 -132 c110 -26 287 -17 324 15 5
4 24 -4 42 -18 34 -25 44 -56 24 -68 -6 -4 -8 -15 -5 -26 6 -16 -6 -97 -21
-151 -3 -9 -14 -19 -25 -22 -10 -4 -28 -9 -39 -12 -15 -4 -20 -1 -20 13 0 21
-54 138 -68 147 -13 8 -62 -16 -62 -31 0 -7 5 -13 11 -13 6 0 8 -11 5 -27 -2
-16 -7 -45 -11 -65 l-6 -38 -52 0 c-29 0 -120 5 -202 12 -144 11 -155 10 -248
-11 -172 -40 -268 -126 -285 -256 l-8 -60 -37 73 c-49 94 -71 182 -64 249 6
61 48 144 91 179 66 56 204 109 331 128 55 8 259 -3 325 -18z m-1213 -138 c-3
-8 -6 -5 -6 6 -1 11 2 17 5 13 3 -3 4 -12 1 -19z m-728 -124 c14 -12 -19 -1
-35 12 -18 14 -18 14 6 3 14 -6 27 -13 29 -15z m757 -5 c-32 -17 -60 -28 -63
-26 -5 5 96 55 112 56 6 0 -16 -14 -49 -30z m-160 -9 c11 0 10 -4 -3 -18 -16
-16 -19 -16 -24 -2 -3 8 -4 22 -1 29 4 10 7 11 10 3 2 -7 10 -12 18 -12z
m-556 0 c8 -5 11 -10 5 -10 -5 0 -17 5 -25 10 -8 5 -10 10 -5 10 6 0 17 -5 25
-10z m77 -26 c-3 -3 -12 -4 -19 -1 -8 3 -5 6 6 6 11 1 17 -2 13 -5z m1866 -10
l107 -7 0 -53 c0 -72 17 -149 47 -208 l25 -50 -21 -44 c-18 -37 -26 -43 -44
-39 -12 3 -76 17 -142 31 -257 56 -394 123 -445 219 -27 51 -20 89 22 120 63
47 114 51 451 31z m301 -11 c-4 -16 -17 -55 -30 -88 l-23 -60 0 82 c-1 83 2
90 42 92 14 1 16 -4 11 -26z m-2111 10 c-7 -2 -21 -2 -30 0 -10 3 -4 5 12 5
17 0 24 -2 18 -5z m142 -13 l50 -7 -45 -1 c-25 0 -65 3 -90 7 l-45 8 40 1 c22
0 63 -3 90 -8z m180 0 c-11 -5 -40 -8 -65 -8 l-45 1 40 7 c22 4 51 7 65 8 23
1 23 0 5 -8z m993 -35 c-6 -14 -18 -25 -27 -25 -9 0 -27 -3 -41 -6 l-25 -6 23
17 c20 14 73 45 79 45 2 0 -3 -11 -9 -25z m-8 -77 c0 -10 -7 -18 -15 -18 -22
0 -95 -38 -122 -63 -30 -27 -30 -5 0 48 18 32 32 43 72 57 52 17 65 12 65 -24z
m18 -41 c9 -10 0 -22 -39 -51 -28 -21 -65 -60 -82 -87 -33 -54 -44 -53 -57 5
-7 33 -5 41 22 71 16 19 52 43 81 54 63 24 62 24 75 8z m17 -108 c-23 -21 -53
-59 -66 -84 -27 -50 -34 -53 -68 -24 l-24 20 37 52 c20 30 55 67 78 84 l43 31
21 -20 22 -20 -43 -39z m74 -31 c-16 -17 -44 -59 -62 -94 l-32 -64 -29 23
c-28 22 -28 23 -13 60 9 20 39 60 66 87 50 50 51 50 76 34 l25 -16 -31 -30z
m80 8 c17 -9 20 -15 12 -21 -19 -11 -77 -106 -90 -147 l-12 -38 -32 16 c-18 9
-33 18 -35 19 -8 7 60 123 88 153 37 36 36 36 69 18z m72 -60 c-26 -28 -71
-125 -71 -153 0 -27 2 -26 -39 -12 -18 6 -31 18 -31 27 1 27 37 100 70 142 29
36 33 38 61 28 l30 -10 -20 -22z m-1627 -18 c5 -22 13 -28 34 -29 l27 -2 -27
-4 c-26 -4 -28 -8 -30 -51 l-1 -47 -6 45 c-6 42 -8 45 -41 51 l-35 6 33 2 c30
1 32 3 33 39 1 38 3 37 13 -10z m1715 16 c2 -2 -3 -12 -11 -21 -24 -28 -56
-95 -63 -137 -7 -36 -9 -38 -38 -32 -17 3 -32 8 -34 10 -10 10 31 118 58 156
26 36 34 41 57 35 15 -4 29 -8 31 -11z m58 -10 l21 -6 -24 -35 c-23 -34 -54
-121 -54 -151 0 -10 -8 -12 -32 -7 -18 4 -35 9 -36 10 -10 9 31 116 58 153 32
44 33 45 67 36z m83 -23 c0 -26 -52 -96 -79 -107 -34 -14 -37 -9 -19 33 23 54
49 83 74 83 13 0 24 -4 24 -9z m78 -16 c2 -2 -7 -20 -20 -42 -33 -54 -48 -90
-48 -118 0 -20 -5 -25 -25 -25 -22 0 -25 4 -25 39 0 46 12 83 43 128 18 26 27
31 47 26 14 -3 26 -7 28 -8z m52 -24 c0 -12 -102 -173 -106 -168 -3 3 0 25 7
51 15 60 65 137 85 129 8 -3 14 -8 14 -12z m-1872 -52 c15 -1 15 -2 0 -6 -10
-2 -19 -14 -19 -26 -1 -21 -2 -21 -6 -2 -3 11 -10 23 -17 27 -8 6 -7 8 2 8 6
0 13 10 13 23 l2 22 4 -22 c2 -13 12 -24 21 -24z m1932 31 c0 -5 -9 -14 -21
-20 -19 -11 -20 -10 -9 9 11 22 30 29 30 11z m170 -129 c14 -27 13 -31 -10
-31 -23 0 -96 -34 -122 -58 -14 -12 -21 -12 -33 -2 -22 18 -3 44 42 58 21 6
52 20 68 31 38 25 42 25 55 2z m-348 -45 c-49 -80 -125 -169 -94 -109 5 10 15
43 22 73 12 55 12 56 46 52 23 -3 31 -8 26 -16z m377 -27 c16 -47 15 -49 -39
-49 -28 0 -66 -6 -85 -14 -29 -12 -34 -12 -39 0 -8 20 42 63 94 79 60 18 57
19 69 -16z m-251 -4 c61 -28 88 -74 78 -133 -6 -42 -27 -66 -86 -101 -42 -24
-53 -26 -171 -26 l-127 0 39 45 c21 25 72 89 111 142 40 53 80 97 88 97 8 1
39 -10 68 -24z m32 15 c0 -5 -2 -10 -4 -10 -3 0 -8 5 -11 10 -3 6 -1 10 4 10
6 0 11 -4 11 -10z m233 -129 c-1 -24 -4 -45 -7 -48 -2 -2 -22 5 -45 16 -22 12
-56 21 -76 21 -29 0 -35 4 -35 20 0 28 33 40 105 37 l60 -2 -2 -44z m-50 -47
c31 -16 34 -30 11 -55 -14 -16 -18 -15 -64 16 -27 18 -55 35 -61 37 -7 2 -9
10 -5 17 10 15 76 6 119 -15z m-51 -55 c22 -16 26 -24 18 -34 -16 -19 -50 -26
-50 -10 0 7 -14 25 -31 39 -59 50 -6 54 63 5z m-1612 8 c12 -4 11 -6 -2 -6
-10 -1 -19 -9 -19 -18 -1 -17 -2 -17 -6 0 -2 9 -9 17 -14 17 -5 0 -4 6 3 14 7
8 15 10 18 6 3 -4 12 -10 20 -13z m1544 -34 c20 -20 24 -28 14 -35 -28 -17
-34 -12 -66 55 -9 18 28 4 52 -20z m-54 -12 c14 -27 13 -31 -9 -31 -10 0 -21
9 -24 19 -9 35 16 43 33 12z m-2141 -87 c17 -18 17 -21 2 -54 -8 -19 -17 -37
-18 -39 -6 -8 -33 22 -33 37 0 12 3 13 12 4 7 -7 16 -12 21 -12 5 0 -2 9 -17
21 -29 23 -35 69 -14 115 l13 27 8 -40 c4 -22 16 -49 26 -59z m2097 59 c-2 -2
-11 0 -20 3 -14 5 -15 9 -5 15 12 7 34 -10 25 -18z m190 -6 c-50 -65 -133
-111 -227 -126 -87 -14 -139 -18 -138 -11 0 3 22 19 49 36 35 23 52 28 59 21
8 -8 14 -8 23 1 9 9 8 13 -5 17 -9 4 -13 13 -10 22 3 8 0 19 -8 24 -31 20
-213 3 -294 -27 -16 -6 -14 -1 9 24 l30 32 112 0 c62 0 125 -5 141 -11 49 -20
182 -15 233 8 25 12 46 22 48 22 2 1 -8 -14 -22 -32z m-2148 -8 c15 -1 15 -2
0 -6 -10 -2 -19 -12 -19 -21 -1 -15 -2 -15 -6 1 -2 9 -12 18 -21 18 -15 1 -15
2 1 6 9 2 18 12 18 21 1 15 2 15 6 0 2 -10 12 -19 21 -19z m1513 -39 c-30 -28
-64 -53 -75 -56 -11 -4 -33 -20 -47 -35 -27 -29 -49 -37 -49 -19 0 6 11 33 25
60 24 48 28 50 98 71 39 11 77 22 82 24 22 7 18 2 -34 -45z m-1721 -43 c0 -12
9 -37 20 -54 l19 -33 -147 -310 c-156 -329 -166 -342 -142 -178 15 106 53 211
150 425 79 171 100 203 100 150z m178 -24 c24 -6 26 -11 14 -30 -9 -14 -76 0
-87 17 -11 17 6 32 29 25 11 -4 31 -9 44 -12z m-8 -74 c-10 -18 -13 -18 -47
-4 -45 19 -45 19 -37 38 5 14 10 14 50 0 38 -13 42 -17 34 -34z m1550 20 c13
-7 13 -8 0 -9 -9 0 -48 -16 -88 -34 -191 -92 -273 -288 -227 -546 l6 -35 -20
23 c-32 37 -72 176 -78 272 -7 113 8 168 48 182 56 19 203 96 254 131 49 35
67 38 105 16z m-967 4 c-7 -2 -19 -2 -25 0 -7 3 -2 5 12 5 14 0 19 -2 13 -5z
m787 -13 c0 -5 -5 -10 -11 -10 -5 0 -7 5 -4 10 3 6 8 10 11 10 2 0 4 -4 4 -10z
m-1391 -47 c5 -3 -121 -261 -167 -339 -42 -71 -163 -218 -187 -228 -8 -3 2 28
24 77 66 141 211 448 232 488 l19 39 38 -17 c20 -10 39 -18 41 -20z m1253 3
c-3 -24 -11 -37 -28 -45 -13 -6 -24 -7 -24 -3 0 7 48 82 53 82 2 0 1 -15 -1
-34z"/>
<path d="M2443 3948 c-18 -6 -33 -15 -33 -20 0 -5 10 -3 23 4 12 6 54 15 92
18 l70 7 -60 1 c-33 0 -75 -5 -92 -10z"/>
<path d="M2671 3858 c0 -16 -7 -28 -13 -28 -10 0 -10 -2 -1 -8 6 -4 13 -21 16
-37 l4 -30 2 32 c1 24 6 33 24 36 22 4 22 4 0 6 -16 1 -23 9 -26 29 l-4 27 -2
-27z"/>
<path d="M2272 3765 c-22 -27 -38 -82 -28 -92 3 -4 6 1 6 11 0 21 29 78 44 88
6 4 8 10 4 13 -3 3 -15 -6 -26 -20z"/>
<path d="M2771 3728 c0 -18 3 -26 6 -18 3 8 9 17 13 20 4 3 2 11 -6 18 -12 11
-14 8 -13 -20z"/>
<path d="M2216 3708 c-10 -39 -6 -131 8 -171 15 -41 65 -111 73 -103 3 3 -6
19 -20 35 -43 51 -60 112 -55 191 6 74 4 85 -6 48z"/>
<path d="M2246 3583 c14 -59 72 -141 118 -165 11 -6 -2 11 -30 38 -36 35 -56
65 -68 102 -19 55 -31 71 -20 25z"/>
<path d="M2370 3375 c0 -7 71 -35 89 -35 9 1 -6 10 -34 20 -55 22 -55 22 -55
15z"/>
<path d="M2644 3360 c-5 -5 -27 -14 -49 -19 -36 -8 -37 -9 -10 -10 17 0 44 8
60 19 17 11 25 20 20 20 -6 0 -15 -4 -21 -10z"/>
<path d="M2528 3333 c7 -3 16 -2 19 1 4 3 -2 6 -13 5 -11 0 -14 -3 -6 -6z"/>
<path d="M4450 3535 c-7 -8 -19 -15 -26 -15 -8 0 -14 -2 -14 -5 0 -4 21 -55
26 -63 1 -2 15 5 30 15 29 18 29 18 13 51 -14 27 -18 30 -29 17z m12 -47 c-10
-10 -15 -10 -22 2 -6 9 -5 17 3 22 18 11 33 -10 19 -24z"/>
<path d="M4617 3504 c-4 -4 -7 -16 -7 -26 0 -13 7 -18 26 -18 21 0 25 4 22 22
-3 23 -27 35 -41 22z m33 -18 c0 -11 -19 -15 -25 -6 -3 5 1 10 9 10 9 0 16 -2
16 -4z"/>
<path d="M4293 3444 c-3 -8 -1 -20 6 -27 14 -14 47 15 37 32 -10 16 -36 13
-43 -5z"/>
<path d="M2882 2963 c-8 -8 -9 -13 -2 -13 5 0 11 -10 11 -22 1 -21 2 -21 6 -3
3 11 9 22 13 25 4 3 2 10 -4 16 -9 8 -15 7 -24 -3z"/>
<path d="M2143 3146 c51 -42 219 -88 311 -85 28 1 17 4 -33 10 -104 12 -185
35 -250 69 -47 25 -52 26 -28 6z"/>
<path d="M2845 3130 c-22 -24 -94 -49 -177 -59 -47 -6 -53 -9 -25 -10 60 -2
169 27 202 53 17 13 27 27 24 30 -3 3 -14 -3 -24 -14z"/>
<path d="M2523 3053 c15 -2 37 -2 50 0 12 2 0 4 -28 4 -27 0 -38 -2 -22 -4z"/>
<path d="M2483 3033 c15 -2 37 -2 50 0 12 2 0 4 -28 4 -27 0 -38 -2 -22 -4z"/>
<path d="M2663 3033 c9 -2 25 -2 35 0 9 3 1 5 -18 5 -19 0 -27 -2 -17 -5z"/>
<path d="M2355 2935 c7 -89 15 -122 26 -103 6 9 9 6 9 -11 0 -27 57 -202 71
-215 5 -6 -6 35 -25 90 -19 55 -38 122 -42 150 -6 41 -9 45 -14 24 -5 -18 -9
-6 -14 45 -10 94 -17 108 -11 20z"/>
<path d="M2563 2855 c0 -27 2 -38 4 -22 2 15 2 37 0 50 -2 12 -4 0 -4 -28z"/>
<path d="M2543 2850 c0 -25 2 -35 4 -22 2 12 2 32 0 45 -2 12 -4 2 -4 -23z"/>
<path d="M4110 3150 c0 -15 5 -20 18 -18 9 2 17 10 17 18 0 8 -8 16 -17 18
-13 2 -18 -3 -18 -18z"/>
<path d="M2695 3180 c-30 -8 -30 -8 8 -9 20 0 37 4 37 9 0 11 -2 11 -45 0z"/>
<path d="M4515 2610 c-8 -14 3 -30 21 -30 8 0 14 9 14 20 0 21 -24 28 -35 10z"/>
<path d="M3943 2455 c-12 -14 -35 -28 -51 -31 l-30 -6 24 -35 c13 -20 24 -46
24 -59 0 -29 11 -30 35 -4 9 10 32 24 51 30 l33 11 -25 36 c-13 20 -24 46 -24
59 0 30 -9 30 -37 -1z m35 -49 l21 -35 -32 -19 -32 -18 -20 35 -20 36 30 16
c16 9 31 17 32 18 0 0 10 -15 21 -33z"/>
<path d="M4316 2414 c-10 -7 -23 -15 -28 -16 -5 -2 -1 -18 8 -36 15 -31 17
-32 33 -18 10 9 23 16 29 16 16 0 15 4 -6 39 -16 26 -20 28 -36 15z m19 -44
c-5 -8 -11 -8 -21 1 -12 10 -12 14 -2 20 16 10 33 -5 23 -21z"/>
<path d="M3764 2395 c-4 -9 -2 -21 4 -27 15 -15 44 -1 40 19 -4 23 -36 29 -44
8z"/>
<path d="M3540 2386 c-7 -9 -19 -16 -26 -16 -8 0 -14 -2 -14 -5 0 -3 20 -53
26 -63 2 -5 55 26 54 32 0 3 -7 19 -14 36 -11 27 -14 29 -26 16z m20 -48 c0
-5 -7 -8 -15 -8 -15 0 -20 21 -8 33 7 7 23 -11 23 -25z"/>
<path d="M4087 2393 c-11 -10 -8 -41 4 -49 6 -3 18 1 27 9 13 13 13 19 2 31
-14 17 -23 20 -33 9z m23 -23 c0 -5 -2 -10 -4 -10 -3 0 -8 5 -11 10 -3 6 -1
10 4 10 6 0 11 -4 11 -10z"/>
<path d="M3657 2383 c-12 -11 -8 -23 8 -23 8 0 15 7 15 15 0 16 -12 20 -23 8z"/>
<path d="M3430 2275 c0 -9 5 -15 11 -13 6 2 11 8 11 13 0 5 -5 11 -11 13 -6 2
-11 -4 -11 -13z"/>
<path d="M3374 2185 c-4 -9 -2 -21 4 -27 15 -15 44 -1 40 19 -4 23 -36 29 -44
8z m26 -5 c0 -5 -5 -10 -11 -10 -5 0 -7 5 -4 10 3 6 8 10 11 10 2 0 4 -4 4
-10z"/>
<path d="M3407 923 c-4 -3 -7 -17 -7 -30 0 -18 5 -23 25 -23 14 0 28 7 31 15
11 27 -30 58 -49 38z m33 -29 c0 -17 -22 -14 -28 4 -2 7 3 12 12 12 9 0 16 -7
16 -16z"/>
<path d="M3382 773 c4 -22 43 -25 43 -3 0 8 -11 16 -23 18 -19 3 -23 0 -20
-15z"/>
<path d="M1254 4059 c-64 -24 -125 -88 -179 -184 -21 -38 -72 -110 -113 -159
-40 -49 -94 -120 -119 -157 -25 -38 -47 -69 -48 -69 0 0 5 48 13 108 8 62 11
157 9 227 -7 190 -33 220 -93 110 -83 -151 -85 -347 -5 -475 l28 -45 -54 -107
-54 -108 -44 0 c-43 0 -45 1 -45 30 0 40 -25 100 -43 100 -21 0 -67 -54 -82
-96 -12 -37 -15 -38 -61 -41 -82 -5 -134 -65 -134 -155 0 -38 4 -48 20 -53 25
-8 26 -25 1 -25 -14 0 -25 -14 -38 -47 -15 -41 -18 -77 -18 -243 1 -208 8
-257 62 -433 22 -74 31 -90 52 -98 14 -5 33 -12 41 -15 11 -4 8 -9 -12 -20
-27 -14 -28 -18 -28 -85 l0 -71 -53 6 c-47 6 -55 4 -73 -16 -35 -38 -36 -47
-14 -78 l21 -30 -45 0 -46 0 -2 -37 c-3 -62 4 -156 13 -180 6 -15 20 -24 46
-28 237 -41 628 -131 788 -181 77 -24 83 -29 157 -108 l77 -82 -57 19 c-34 11
-98 21 -159 25 -93 4 -103 3 -110 -13 -5 -14 3 -27 31 -51 91 -79 244 -117
354 -88 l54 14 52 -34 c127 -84 289 -153 405 -171 78 -13 42 13 -73 53 l-108
37 -22 75 c-24 82 -55 137 -124 218 -32 38 -51 52 -66 50 -17 -2 -20 -9 -18
-36 5 -49 36 -133 67 -182 14 -23 25 -44 22 -46 -6 -6 -113 71 -204 147 -93
78 -100 103 -32 112 124 16 189 172 189 450 0 199 -6 234 -45 260 l-32 21 25
21 26 22 -21 49 c-37 85 -60 231 -79 492 -6 86 -8 93 -32 106 l-25 13 32 19
c25 15 31 25 31 51 l0 33 93 0 c92 0 93 0 124 33 55 57 68 93 68 188 0 75 -3
90 -25 122 -30 44 -86 77 -132 77 -19 0 -76 -9 -128 -21 -94 -20 -330 -59
-362 -59 -11 0 3 19 39 53 118 111 161 189 94 172 -46 -11 -192 -84 -242 -120
l-50 -35 22 42 c33 66 140 223 213 315 60 75 74 87 157 128 119 60 169 108
219 207 22 44 37 84 34 89 -9 15 -76 9 -130 -12z m44 -838 c-52 -47 -68 -89
-68 -187 0 -38 -3 -100 -7 -137 -6 -66 -8 -70 -45 -94 -21 -14 -38 -29 -38
-33 0 -4 17 -15 39 -24 l38 -18 6 -117 c9 -164 34 -333 62 -416 13 -38 21 -74
18 -78 -3 -5 -21 -16 -41 -24 l-35 -14 54 -33 c43 -25 55 -38 57 -61 4 -30 4
-30 -17 -11 -29 26 -26 13 4 -20 18 -20 24 -36 23 -70 0 -24 -4 -41 -9 -38 -5
3 -9 0 -9 -5 0 -6 4 -11 9 -11 5 0 10 -45 10 -100 1 -55 -3 -100 -7 -100 -17
0 -50 76 -49 113 1 34 2 37 14 21 15 -21 17 -38 3 -29 -13 8 -13 3 5 -36 17
-40 17 -40 17 31 0 70 -12 127 -23 109 -6 -10 -12 -5 -21 16 -7 17 -19 31 -26
33 -10 2 -10 -2 -1 -19 6 -12 12 -45 14 -74 l3 -53 -36 24 c-42 29 -97 46
-242 75 l-109 22 -32 78 c-30 77 -46 102 -35 57 4 -16 1 -14 -10 7 l-15 30 5
-30 c2 -16 7 -39 10 -50 4 -11 -1 -5 -9 13 -13 28 -14 43 -4 99 17 96 -3 305
-32 337 -13 15 -36 -11 -66 -73 -22 -47 -28 -74 -32 -166 l-6 -110 -23 61
c-30 82 -58 194 -73 292 l-12 79 65 64 c75 75 127 169 154 282 17 73 15 107
-5 107 -20 0 -136 -148 -179 -226 l-42 -79 6 65 c10 106 42 254 77 352 l33 92
59 13 c33 8 122 23 199 33 157 22 368 59 375 65 2 3 13 5 24 5 16 0 10 -9 -25
-39z m174 10 c18 -3 48 -83 48 -126 0 -52 -11 -58 -27 -15 -19 49 -72 59 -190
34 -38 -7 -42 3 -17 42 13 19 19 22 30 13 12 -10 13 -8 9 7 -4 12 -1 10 10 -6
l16 -25 -5 34 c-4 19 -3 32 0 28 4 -4 13 -2 21 5 10 8 19 6 38 -12 27 -26 34
-17 9 11 -15 16 -13 17 18 15 18 -2 36 -4 40 -5z m-1081 -71 c10 0 19 -5 19
-11 0 -7 -10 -9 -25 -7 -13 3 -22 1 -19 -3 3 -5 13 -9 24 -9 14 0 20 -11 25
-52 11 -78 43 -155 82 -199 l35 -39 -12 -117 c-13 -131 -1 -323 27 -418 3 -11
-23 20 -58 69 -63 88 -125 148 -166 160 -28 9 -34 37 -43 186 l-7 125 -1 -110
c-1 -60 2 -127 7 -147 7 -29 6 -38 -4 -38 -22 0 -25 -29 -9 -78 43 -126 128
-222 249 -278 71 -33 74 -35 91 -86 9 -29 18 -63 20 -75 1 -11 5 -32 8 -45 7
-23 7 -23 -8 2 -9 14 -15 19 -16 12 0 -7 -4 -10 -10 -7 -5 3 -10 1 -10 -5 0
-6 -4 -9 -9 -5 -6 3 -6 -7 0 -27 5 -18 9 -35 10 -38 0 -3 4 4 8 14 7 19 8 19
13 -1 9 -33 -24 -22 -39 13 -8 19 -12 23 -13 11 0 -11 -4 -15 -12 -11 -8 5 -9
2 -4 -11 6 -16 2 -17 -31 -11 -21 3 -51 6 -66 6 -22 0 -30 6 -38 30 -6 16 -15
28 -19 25 -5 -3 -11 1 -14 7 -4 7 -4 -2 -1 -19 4 -28 1 -33 -15 -33 -18 0 -20
7 -20 66 l0 65 56 26 57 26 -32 13 c-17 7 -47 16 -66 20 -42 8 -54 26 -85 138
-35 127 -50 241 -50 388 0 151 13 234 38 247 10 5 40 12 67 16 l50 7 -57 29
c-64 32 -71 50 -47 118 12 35 65 74 87 66 8 -3 22 -5 33 -5z m211 -69 c-27
-79 -42 -88 -42 -23 0 19 5 32 13 32 9 0 9 2 0 8 -6 4 -15 20 -18 35 -7 26 -6
27 33 27 l40 0 -26 -79z m780 -25 c-5 -44 13 -101 41 -128 21 -20 21 -21 2
-13 -11 4 -26 8 -34 8 -7 0 -21 13 -31 29 l-18 29 -6 -26 c-4 -15 -2 -33 4
-40 8 -10 3 -12 -22 -12 -32 1 -48 12 -48 32 0 6 4 4 9 -4 10 -15 41 -25 41
-13 0 4 -5 14 -10 22 -9 13 -10 13 -10 0 -1 -9 -6 -6 -14 9 -10 18 -15 20 -19
10 -3 -8 -6 18 -6 56 l-1 70 63 3 63 3 -4 -35z m48 19 c-7 -9 -15 -13 -17 -11
-7 7 7 26 19 26 6 0 6 -6 -2 -15z m40 -26 c0 -5 -4 -9 -10 -9 -5 0 -10 5 -10
12 0 9 -3 9 -12 0 -7 -7 -16 -12 -22 -12 -5 0 -1 6 9 14 19 14 45 11 45 -5z
m30 -45 c0 -14 -33 -74 -41 -74 -12 0 -39 42 -39 62 0 14 8 18 40 18 22 0 40
-3 40 -6z m-126 -103 c-5 -5 -33 30 -34 43 0 4 9 -2 19 -15 11 -13 17 -26 15
-28z m-111 19 c3 -11 1 -20 -4 -20 -5 0 -9 9 -9 20 0 11 2 20 4 20 2 0 6 -9 9
-20z m-437 -1025 l-5 30 13 -30 c8 -16 13 -31 12 -33 -7 -7 -106 21 -106 29 0
6 4 7 10 4 5 -3 7 0 4 8 -3 8 -1 18 5 22 6 3 11 -1 11 -9 0 -8 4 -18 10 -21 6
-4 6 4 0 21 -6 15 -8 35 -5 43 5 11 14 -1 31 -39 17 -38 23 -46 20 -25z m-186
10 c0 -5 -5 -3 -10 5 -5 8 -10 20 -10 25 0 6 5 3 10 -5 5 -8 10 -19 10 -25z
m240 -50 c0 -20 -28 22 -34 50 l-6 30 20 -35 c10 -19 19 -39 20 -45z m-540 51
c159 -15 357 -48 370 -63 14 -14 10 -15 -37 -10 -29 3 -53 4 -53 2 0 -2 25 -9
54 -15 50 -10 57 -15 80 -56 14 -24 19 -41 13 -37 -7 4 -31 20 -53 35 -102 69
-223 101 -238 63 -14 -38 60 -148 133 -195 49 -32 62 -52 41 -65 -17 -10 -11
-53 8 -59 10 -3 6 -4 -8 -3 -21 2 -27 10 -37 47 l-13 45 3 -42 c1 -23 -2 -39
-7 -36 -4 3 -6 31 -3 62 5 43 3 52 -5 37 -6 -11 -11 -36 -11 -58 0 -30 -4 -38
-18 -38 -22 0 -32 29 -24 67 5 24 5 25 -5 10 -7 -11 -10 -30 -7 -43 2 -13 0
-24 -4 -24 -5 0 -10 15 -10 33 -2 31 -2 31 -6 4 -6 -39 -47 -35 -51 6 -2 15
-8 27 -14 27 -6 0 -8 -10 -4 -26 4 -15 3 -23 -2 -20 -5 3 -13 20 -17 38 -6 29
-8 31 -15 13 -7 -17 -9 -16 -10 10 -2 30 -2 30 -10 5 -8 -25 -8 -25 -10 5 l-2
30 -8 -30 c-7 -26 -8 -23 -10 25 l-3 55 -6 -48 c-6 -49 -20 -62 -32 -30 -7 17
-8 17 -8 1 -1 -29 -17 -21 -29 15 -5 17 -10 24 -11 15 -1 -18 -21 -26 -21 -8
0 5 -7 7 -16 3 -9 -3 -20 0 -25 8 -7 12 -9 12 -10 -1 -1 -8 -5 1 -9 20 l-7 35
-8 -35 c-7 -29 -9 -31 -16 -15 -7 20 -8 20 -8 0 -2 -39 -21 8 -21 52 0 64 7
73 54 73 62 0 70 10 41 50 -42 58 -27 83 45 74 25 -3 61 -7 80 -8z m331 0 c5
3 9 0 9 -6 0 -15 -23 -7 -26 8 -1 7 0 8 3 2 2 -5 9 -8 14 -4z m291 -103 l177
-36 -29 -33 c-15 -18 -31 -42 -35 -53 -8 -27 -16 -26 -45 4 -13 14 -32 25 -43
25 -19 0 -20 -5 -14 -77 3 -43 15 -104 25 -136 14 -42 16 -54 6 -46 -8 6 -14
23 -15 38 0 14 -3 20 -6 13 -3 -9 -13 -2 -30 20 -35 47 -104 153 -142 221
l-32 57 43 1 43 1 -44 9 c-45 9 -80 29 -50 29 7 0 94 -16 191 -37z m348 -13
c6 -11 8 -20 6 -20 -3 0 -10 9 -16 20 -6 11 -8 20 -6 20 3 0 10 -9 16 -20z
m-110 -51 c0 -5 -4 -7 -10 -4 -5 3 -10 -2 -10 -12 0 -15 -2 -16 -10 -3 -7 11
-10 7 -10 -17 0 -36 20 -56 21 -21 0 22 1 22 9 3 7 -18 8 -16 12 10 4 27 5 26
7 -10 2 -32 4 -36 11 -20 8 19 9 18 11 -5 1 -16 5 -8 9 20 l7 45 2 -40 c1 -31
4 -37 12 -25 15 21 6 -129 -9 -155 -9 -17 -10 -14 -5 17 13 82 -17 114 -105
109 l-53 -2 16 37 c8 20 15 39 15 43 1 3 7 -5 16 -19 l15 -25 -6 33 c-6 27 -3
33 17 41 31 13 38 13 38 0z m27 -41 c-3 -8 -6 -5 -6 6 -1 11 2 17 5 13 3 -3 4
-12 1 -19z m-1054 -78 c3 -11 3 -20 1 -20 -2 0 -8 9 -14 20 -6 11 -7 20 -2 20
6 0 12 -9 15 -20z m1166 -29 c-3 -7 -13 3 -23 21 l-19 33 23 -21 c12 -12 21
-27 19 -33z m-1104 9 c3 -5 2 -10 -4 -10 -5 0 -13 5 -16 10 -3 6 -2 10 4 10 5
0 13 -4 16 -10z m891 -32 c-10 -26 -12 -27 -23 -11 -19 25 -16 38 11 39 22 2
23 0 12 -28z m204 -15 c0 -22 -8 -14 -19 20 -10 29 -9 30 4 13 8 -11 15 -26
15 -33z m-956 21 c3 -8 2 -12 -4 -9 -6 3 -10 10 -10 16 0 14 7 11 14 -7z m322
-34 c-1 -43 -3 -48 -13 -33 -17 23 -17 83 0 83 10 0 13 -15 13 -50z m477 35
c-3 -9 -8 -14 -10 -11 -3 3 -2 9 2 15 9 16 15 13 8 -4z m-282 -29 c12 -16 23
-42 24 -58 2 -34 -11 -25 -18 12 -4 24 -4 24 -6 -2 0 -16 -5 -28 -10 -28 -5 0
-14 12 -19 28 l-10 27 -1 -25 c-1 -20 -3 -22 -11 -10 -8 13 -10 13 -10 1 0
-31 -19 5 -23 44 l-4 40 -1 -42 c-2 -33 -5 -41 -17 -37 -8 4 -15 14 -15 23 0
13 -2 14 -9 2 -8 -13 -12 -13 -27 0 -16 13 -17 12 -12 -13 3 -16 1 -28 -3 -28
-5 0 -9 22 -9 49 l0 48 79 -1 c75 -1 80 -3 102 -30z m402 -107 c-30 -55 -69
-87 -86 -70 -6 6 -7 14 -3 18 4 4 11 1 16 -7 8 -12 10 -12 10 4 0 11 3 16 6
13 13 -12 44 36 44 67 0 25 2 28 11 16 8 -11 9 -8 5 15 -6 28 -5 29 9 11 13
-17 12 -24 -12 -67z m-533 45 c0 -8 -4 -12 -10 -9 -5 3 -10 10 -10 16 0 5 5 9
10 9 6 0 10 -7 10 -16z m75 -27 c6 -7 4 -8 -8 -3 -10 3 -25 6 -32 6 -7 0 -15
7 -18 15 -5 12 -2 12 21 3 15 -7 32 -16 37 -21z m121 -21 c6 -25 5 -28 -10
-23 -10 4 -22 7 -27 7 -5 0 -9 7 -9 16 0 13 3 14 14 5 11 -9 12 -6 8 16 -6 37
14 19 24 -21z m267 27 c-21 -16 -25 -16 -47 0 -16 11 -13 13 23 13 35 -1 39
-3 24 -13z m-323 -24 c0 -6 -4 -7 -10 -4 -5 3 -10 11 -10 16 0 6 5 7 10 4 6
-3 10 -11 10 -16z m360 -9 c0 -5 -4 -10 -10 -10 -5 0 -10 5 -10 10 0 6 5 10
10 10 6 0 10 -4 10 -10z m-270 -15 c7 -9 8 -15 2 -15 -5 0 -12 7 -16 15 -3 8
-4 15 -2 15 2 0 9 -7 16 -15z m238 -1 c-4 -3 -14 -7 -25 -8 -10 -2 -17 -10
-15 -20 2 -11 -4 -16 -19 -16 -18 0 -19 2 -9 15 10 12 9 15 -6 16 -11 1 -6 5
11 9 38 10 70 12 63 4z"/>
<path d="M1130 3185 c-47 -18 -80 -34 -73 -34 14 -1 183 59 183 65 0 10 -30 1
-110 -31z"/>
<path d="M967 3174 c-31 -8 -88 -18 -125 -23 -65 -8 -66 -8 -17 -10 46 0 222
32 233 44 9 8 -29 4 -91 -11z"/>
<path d="M1183 2990 c0 -41 2 -58 4 -37 2 20 2 54 0 75 -2 20 -4 3 -4 -38z"/>
<path d="M1186 2465 l3 -70 -13 65 c-19 92 -19 41 0 -87 18 -125 29 -149 21
-48 -4 49 -3 61 3 40 6 -20 7 -5 3 49 -7 102 -22 145 -17 51z"/>
<path d="M856 1990 c9 -36 54 -123 60 -117 3 3 -11 36 -31 73 -19 38 -33 58
-29 44z"/>
<path d="M1250 1998 c0 -9 5 -20 10 -23 6 -3 10 -11 10 -16 0 -6 -5 -7 -11 -3
-6 3 -4 -8 5 -24 9 -17 20 -34 26 -37 5 -3 10 -14 10 -24 0 -10 7 -18 15 -18
20 0 19 4 -15 47 -42 52 -38 62 6 14 20 -21 31 -31 24 -22 -6 9 -9 21 -7 25 3
5 -12 28 -34 53 -25 30 -39 39 -39 28z"/>
<path d="M891 1980 c0 -8 9 -31 20 -50 15 -26 18 -29 13 -10 -9 35 -33 78 -33
60z"/>
<path d="M920 1971 c0 -14 28 -71 35 -71 5 0 -22 70 -30 79 -3 2 -5 -1 -5 -8z"/>
<path d="M950 1962 c0 -17 30 -75 36 -69 3 3 -4 22 -15 44 -11 21 -20 32 -21
25z"/>
<path d="M990 1940 c0 -8 5 -22 10 -30 9 -13 10 -13 10 0 0 8 -5 22 -10 30 -9
13 -10 13 -10 0z"/>
<path d="M1020 1916 c0 -8 5 -18 10 -21 6 -3 10 1 10 9 0 8 -4 18 -10 21 -5 3
-10 -1 -10 -9z"/>
<path d="M1450 3204 c42 -49 44 -50 24 -15 -11 19 -26 36 -34 39 -9 3 -5 -7
10 -24z"/>
<path d="M1365 3211 c-3 -6 -1 -19 4 -28 8 -14 10 -15 11 -3 0 13 1 13 10 0 8
-13 10 -13 10 1 0 22 -26 44 -35 30z"/>
<path d="M253 2780 c0 -47 2 -66 4 -42 2 23 2 61 0 85 -2 23 -4 4 -4 -43z"/>
<path d="M325 1890 c28 -5 64 -8 80 -8 l30 0 -30 8 c-16 4 -52 8 -80 7 l-50 0
50 -7z"/>
<path d="M473 1595 c0 -22 2 -30 4 -17 2 12 2 30 0 40 -3 9 -5 -1 -4 -23z"/>
<path d="M545 1590 c-3 -11 -2 -28 4 -37 8 -15 10 -11 11 20 0 41 -5 47 -15
17z"/>
<path d="M838 1780 c12 -5 53 -12 90 -15 50 -3 58 -2 32 4 -53 13 -150 21
-122 11z"/>
<path d="M2052 3824 c-7 -8 -8 -14 -3 -14 5 0 12 -10 14 -22 l4 -23 2 23 c0
13 8 22 19 23 13 0 14 2 2 6 -8 3 -17 9 -20 13 -3 4 -11 2 -18 -6z"/>
<path d="M2911 3608 c-1 -10 -7 -18 -13 -18 -9 0 -10 -3 -2 -8 6 -4 14 -14 17
-22 4 -12 6 -11 6 3 1 9 7 17 14 17 8 0 9 3 1 8 -6 4 -14 14 -17 22 -4 12 -6
11 -6 -2z"/>
<path d="M2808 3349 c-9 -6 -9 -9 -1 -9 6 0 14 -8 16 -17 4 -16 5 -16 6 -1 0
9 11 18 24 20 20 3 20 4 -5 9 -15 3 -33 2 -40 -2z"/>
<path d="M2031 3213 c0 -13 -7 -23 -13 -23 -9 0 -10 -3 -2 -8 6 -4 14 -14 17
-22 4 -12 6 -12 6 2 1 9 9 19 19 21 15 4 15 5 0 6 -9 0 -19 11 -21 24 l-4 22
-2 -22z"/>
<path d="M2095 2772 c-72 -25 -111 -56 -145 -115 -33 -57 -37 -98 -21 -202 12
-76 18 -116 27 -183 4 -29 9 -51 11 -48 3 2 -5 80 -17 173 -19 142 -20 175
-10 213 16 60 89 133 150 151 25 7 49 16 55 21 12 11 8 10 -50 -10z"/>
<path d="M2159 2766 c-114 -40 -200 -114 -199 -171 1 -12 6 -4 14 18 8 21 21
46 30 56 23 26 109 71 185 97 36 13 59 23 51 23 -8 0 -45 -10 -81 -23z"/>
<path d="M1961 2554 c0 -11 3 -14 6 -6 3 7 2 16 -1 19 -3 4 -6 -2 -5 -13z"/>
<path d="M1960 2471 c0 -17 4 -32 8 -35 4 -2 6 11 4 30 -5 42 -12 45 -12 5z"/>
<path d="M2448 1063 c12 -2 30 -2 40 0 9 3 -1 5 -23 4 -22 0 -30 -2 -17 -4z"/>
<path d="M2553 1063 c9 -2 25 -2 35 0 9 3 1 5 -18 5 -19 0 -27 -2 -17 -5z"/>
<path d="M2433 1043 c37 -2 96 -2 130 0 34 2 4 3 -68 3 -71 0 -99 -1 -62 -3z"/>
</g>
</svg>
